<?xml version="1.0" encoding="UTF-8" standalone="no"?>
<!DOCTYPE svg PUBLIC "-//W3C//DTD SVG 1.1//EN"
 "http://www.w3.org/Graphics/SVG/1.1/DTD/svg11.dtd">
<!-- Generated by graphviz version 2.40.1 (20161225.0304)
 -->
<!-- Title: models_diagram Pages: 1 -->
<svg width="751pt" height="240pt"
 viewBox="0.00 0.00 750.67 240.00" xmlns="http://www.w3.org/2000/svg" xmlns:xlink="http://www.w3.org/1999/xlink">
<g id="graph0" class="graph" transform="scale(1 1) rotate(0) translate(4 236)">
<title>models_diagram</title>
<polygon fill="transparent" stroke="transparent" points="-4,4 -4,-236 746.672,-236 746.672,4 -4,4"/>
<!-- _diagram_info -->
<g id="node1" class="node">
<title>_diagram_info</title>
<text text-anchor="start" x="8" y="-217.6" font-family="Times,serif" font-size="13.00" fill="#000000">Models diagram</text>
<text text-anchor="start" x="8" y="-204.6" font-family="Times,serif" font-size="13.00" fill="#000000">Date: Mar 26 2017 &#45; 22:48</text>
<text text-anchor="start" x="8" y="-191.6" font-family="Times,serif" font-size="13.00" fill="#000000">Migration version: 20170326114421</text>
<text text-anchor="start" x="8" y="-178.6" font-family="Times,serif" font-size="13.00" fill="#000000">Generated by RailRoady 1.5.2</text>
<text text-anchor="start" x="8" y="-165.6" font-family="Times,serif" font-size="13.00" fill="#000000">http://railroady.prestonlee.com</text>
</g>
<!-- ApplicationRecord -->
<g id="node2" class="node">
<title>ApplicationRecord</title>
<ellipse fill="none" stroke="#000000" cx="302.4497" cy="-195.5" rx="77.2916" ry="18"/>
<text text-anchor="middle" x="302.4497" y="-191.3" font-family="Times,serif" font-size="14.00" fill="#000000">ApplicationRecord</text>
</g>
<!-- Comment -->
<g id="node3" class="node">
<title>Comment</title>
<ellipse fill="none" stroke="#000000" cx="388.4497" cy="-18" rx="44.9768" ry="18"/>
<text text-anchor="middle" x="388.4497" y="-13.8" font-family="Times,serif" font-size="14.00" fill="#000000">Comment</text>
</g>
<!-- Game -->
<g id="node4" class="node">
<title>Game</title>
<ellipse fill="none" stroke="#000000" cx="711.4497" cy="-195.5" rx="31.4462" ry="18"/>
<text text-anchor="middle" x="711.4497" y="-191.3" font-family="Times,serif" font-size="14.00" fill="#000000">Game</text>
</g>
<!-- Topic -->
<g id="node7" class="node">
<title>Topic</title>
<ellipse fill="none" stroke="#000000" cx="711.4497" cy="-91" rx="30.2342" ry="18"/>
<text text-anchor="middle" x="711.4497" y="-86.8" font-family="Times,serif" font-size="14.00" fill="#000000">Topic</text>
</g>
<!-- Game&#45;&gt;Topic -->
<g id="edge1" class="edge">
<title>Game&#45;&gt;Topic</title>
<path fill="none" stroke="#951460" d="M711.4497,-169.1853C711.4497,-154.0145 711.4497,-134.9357 711.4497,-119.4227"/>
<ellipse fill="none" stroke="#951460" cx="711.4498" cy="-173.2975" rx="4" ry="4"/>
<polygon fill="#951460" stroke="#951460" points="711.4498,-119.3445 715.9497,-109.3445 711.4498,-114.3445 711.4497,-109.3445 711.4497,-109.3445 711.4497,-109.3445 711.4498,-114.3445 706.9497,-109.3446 711.4498,-119.3445 711.4498,-119.3445"/>
</g>
<!-- Post -->
<g id="node5" class="node">
<title>Post</title>
<ellipse fill="none" stroke="#000000" cx="423.4497" cy="-91" rx="27" ry="18"/>
<text text-anchor="middle" x="423.4497" y="-86.8" font-family="Times,serif" font-size="14.00" fill="#000000">Post</text>
</g>
<!-- Post&#45;&gt;Comment -->
<g id="edge2" class="edge">
<title>Post&#45;&gt;Comment</title>
<path fill="none" stroke="#821283" d="M411.6229,-66.3327C408.3091,-59.4211 404.691,-51.8748 401.3199,-44.8436"/>
<ellipse fill="none" stroke="#821283" cx="413.4258" cy="-70.0932" rx="4" ry="4"/>
<polygon fill="#821283" stroke="#821283" points="401.2512,-44.7001 400.9855,-33.7374 399.0895,-40.1915 396.9278,-35.6829 396.9278,-35.6829 396.9278,-35.6829 399.0895,-40.1915 392.8701,-37.6284 401.2512,-44.7001 401.2512,-44.7001"/>
</g>
<!-- Relationship -->
<g id="node6" class="node">
<title>Relationship</title>
<ellipse fill="none" stroke="#000000" cx="550.4497" cy="-91" rx="54.6248" ry="18"/>
<text text-anchor="middle" x="550.4497" y="-86.8" font-family="Times,serif" font-size="14.00" fill="#000000">Relationship</text>
</g>
<!-- User -->
<g id="node8" class="node">
<title>User</title>
<ellipse fill="none" stroke="#000000" cx="424.4497" cy="-195.5" rx="27" ry="18"/>
<text text-anchor="middle" x="424.4497" y="-191.3" font-family="Times,serif" font-size="14.00" fill="#000000">User</text>
</g>
<!-- User&#45;&gt;Comment -->
<g id="edge4" class="edge">
<title>User&#45;&gt;Comment</title>
<path fill="none" stroke="#467e1c" d="M410.9751,-171.3395C402.3547,-154.4525 391.9702,-131.0628 387.4497,-109 384.2381,-93.3256 387.3043,-88.9993 387.4497,-73 387.5278,-64.4052 387.6746,-55.0558 387.8321,-46.5447"/>
<ellipse fill="none" stroke="#467e1c" cx="412.9284" cy="-175.0693" rx="4" ry="4"/>
<polygon fill="#467e1c" stroke="#467e1c" points="387.8363,-46.3303 392.5322,-36.4207 387.9347,-41.3312 388.033,-36.3322 388.033,-36.3322 388.033,-36.3322 387.9347,-41.3312 383.5339,-36.2436 387.8363,-46.3303 387.8363,-46.3303"/>
</g>
<!-- User&#45;&gt;Post -->
<g id="edge3" class="edge">
<title>User&#45;&gt;Post</title>
<path fill="none" stroke="#c06e01" d="M423.1502,-169.1561C422.6576,-156.4229 422.2564,-140.9187 422.4497,-127 422.4834,-124.5735 422.5299,-122.0553 422.5845,-119.5289"/>
<ellipse fill="none" stroke="#c06e01" cx="423.3317" cy="-173.4787" rx="4" ry="4"/>
<polygon fill="#c06e01" stroke="#c06e01" points="422.5899,-119.3089 427.3412,-109.4258 422.7163,-114.3105 422.8427,-109.3121 422.8427,-109.3121 422.8427,-109.3121 422.7163,-114.3105 418.3441,-109.1983 422.5899,-119.3089 422.5899,-119.3089"/>
</g>
<!-- User&#45;&gt;Relationship -->
<g id="edge5" class="edge">
<title>User&#45;&gt;Relationship</title>
<path fill="none" stroke="#7ceeee" d="M425.5222,-168.8713C427.4204,-154.821 431.966,-138.2182 442.4839,-127 450.318,-118.6443 473.2001,-110.4733 495.8936,-104.0334"/>
<ellipse fill="none" stroke="#7ceeee" cx="425.0671" cy="-173.2404" rx="4" ry="4"/>
<polygon fill="#7ceeee" stroke="#7ceeee" points="495.9189,-104.0265 506.7526,-105.7239 500.7412,-102.7052 505.5635,-101.3839 505.5635,-101.3839 505.5635,-101.3839 500.7412,-102.7052 504.3743,-97.0439 495.9189,-104.0265 495.9189,-104.0265"/>
<text text-anchor="middle" x="499.4326" y="-129.8" font-family="Times,serif" font-size="14.00" fill="#000000">active_relationships</text>
</g>
<!-- User&#45;&gt;Relationship -->
<g id="edge7" class="edge">
<title>User&#45;&gt;Relationship</title>
<path fill="none" stroke="#b0fa88" d="M459.2974,-191.5079C490.1408,-185.925 533.4245,-172.6125 554.4497,-141 558.6936,-134.6191 559.5471,-126.7169 558.8397,-119.0932"/>
<ellipse fill="none" stroke="#b0fa88" cx="455.2975" cy="-192.1718" rx="4" ry="4"/>
<polygon fill="#b0fa88" stroke="#b0fa88" points="558.8041,-118.8892 561.512,-108.2629 557.9417,-113.9641 557.0794,-109.039 557.0794,-109.039 557.0794,-109.039 557.9417,-113.9641 552.6468,-109.8152 558.8041,-118.8892 558.8041,-118.8892"/>
<text text-anchor="middle" x="619.3291" y="-129.8" font-family="Times,serif" font-size="14.00" fill="#000000">passive_relationships</text>
</g>
<!-- User&#45;&gt;User -->
<g id="edge6" class="edge">
<title>User&#45;&gt;User</title>
<path fill="none" stroke="#74693b" d="M460.5698,-200.5868C465.872,-199.7856 469.4497,-198.09 469.4497,-195.5 469.4497,-192.91 465.872,-191.2144 460.5698,-190.4132"/>
<polygon fill="#74693b" stroke="#74693b" points="460.3337,-200.5983 450.1242,-196.5961 455.3397,-200.8445 450.3458,-201.0907 450.3458,-201.0907 450.3458,-201.0907 455.3397,-200.8445 450.5673,-205.5852 460.3337,-200.5983 460.3337,-200.5983"/>
<polygon fill="#74693b" stroke="#74693b" points="460.3337,-190.4017 450.5673,-185.4148 455.3397,-190.1555 450.3458,-189.9093 450.3458,-189.9093 450.3458,-189.9093 455.3397,-190.1555 450.1242,-194.4039 460.3337,-190.4017 460.3337,-190.4017"/>
<text text-anchor="middle" x="496.6704" y="-191.3" font-family="Times,serif" font-size="14.00" fill="#000000">following</text>
</g>
<!-- User&#45;&gt;User -->
<g id="edge8" class="edge">
<title>User&#45;&gt;User</title>
<path fill="none" stroke="#37dbdd" d="M459.0037,-205.4357C488.5843,-208.8754 523.8911,-205.5635 523.8911,-195.5 523.8911,-185.4365 488.5843,-182.1246 459.0037,-185.5643"/>
<polygon fill="#37dbdd" stroke="#37dbdd" points="458.7398,-205.3969 449.5035,-199.4857 453.7933,-204.6672 448.8468,-203.9375 448.8468,-203.9375 448.8468,-203.9375 453.7933,-204.6672 448.1901,-208.3893 458.7398,-205.3969 458.7398,-205.3969"/>
<polygon fill="#37dbdd" stroke="#37dbdd" points="458.7398,-185.6031 448.1901,-182.6107 453.7933,-186.3328 448.8468,-187.0625 448.8468,-187.0625 448.8468,-187.0625 453.7933,-186.3328 449.5035,-191.5143 458.7398,-185.6031 458.7398,-185.6031"/>
<text text-anchor="middle" x="550.3291" y="-191.3" font-family="Times,serif" font-size="14.00" fill="#000000">followers</text>
</g>
</g>
</svg>
