<?xml version="1.0" encoding="UTF-8" standalone="no"?>
<!DOCTYPE svg PUBLIC "-//W3C//DTD SVG 1.1//EN"
 "http://www.w3.org/Graphics/SVG/1.1/DTD/svg11.dtd">
<!-- Generated by graphviz version 2.40.1 (20161225.0304)
 -->
<!-- Title: controllers_diagram Pages: 1 -->
<svg width="660pt" height="563pt"
 viewBox="0.00 0.00 659.64 563.00" xmlns="http://www.w3.org/2000/svg" xmlns:xlink="http://www.w3.org/1999/xlink">
<g id="graph0" class="graph" transform="scale(1 1) rotate(0) translate(4 559)">
<title>controllers_diagram</title>
<polygon fill="transparent" stroke="transparent" points="-4,4 -4,-559 655.6416,-559 655.6416,4 -4,4"/>
<!-- _diagram_info -->
<g id="node1" class="node">
<title>_diagram_info</title>
<text text-anchor="start" x="120" y="-490.6" font-family="Times,serif" font-size="13.00" fill="#000000">Controllers diagram</text>
<text text-anchor="start" x="120" y="-477.6" font-family="Times,serif" font-size="13.00" fill="#000000">Date: Mar 26 2017 &#45; 22:48</text>
<text text-anchor="start" x="120" y="-464.6" font-family="Times,serif" font-size="13.00" fill="#000000">Migration version: 20170326114421</text>
<text text-anchor="start" x="120" y="-451.6" font-family="Times,serif" font-size="13.00" fill="#000000">Generated by RailRoady 1.5.2</text>
<text text-anchor="start" x="120" y="-438.6" font-family="Times,serif" font-size="13.00" fill="#000000">http://railroady.prestonlee.com</text>
</g>
<!-- ApplicationController -->
<g id="node2" class="node">
<title>ApplicationController</title>
<path fill="none" stroke="#000000" d="M524,-320.5C524,-320.5 639.6416,-320.5 639.6416,-320.5 645.6416,-320.5 651.6416,-326.5 651.6416,-332.5 651.6416,-332.5 651.6416,-414.5 651.6416,-414.5 651.6416,-420.5 645.6416,-426.5 639.6416,-426.5 639.6416,-426.5 524,-426.5 524,-426.5 518,-426.5 512,-420.5 512,-414.5 512,-414.5 512,-332.5 512,-332.5 512,-326.5 518,-320.5 524,-320.5"/>
<text text-anchor="middle" x="581.8208" y="-411.3" font-family="Times,serif" font-size="14.00" fill="#000000">ApplicationController</text>
<polyline fill="none" stroke="#000000" points="512,-404.5 651.6416,-404.5 "/>
<polyline fill="none" stroke="#000000" points="512,-380.5 651.6416,-380.5 "/>
<polyline fill="none" stroke="#000000" points="512,-356.5 651.6416,-356.5 "/>
<text text-anchor="start" x="520" y="-341.3" font-family="Times,serif" font-size="14.00" fill="#000000">_layout</text>
<text text-anchor="start" x="520" y="-327.3" font-family="Times,serif" font-size="14.00" fill="#000000">logged_in_user</text>
</g>
<!-- CommentsController -->
<g id="node3" class="node">
<title>CommentsController</title>
<path fill="none" stroke="#000000" d="M364,-384.5C364,-384.5 474.2139,-384.5 474.2139,-384.5 480.2139,-384.5 486.2139,-390.5 486.2139,-396.5 486.2139,-396.5 486.2139,-518.5 486.2139,-518.5 486.2139,-524.5 480.2139,-530.5 474.2139,-530.5 474.2139,-530.5 364,-530.5 364,-530.5 358,-530.5 352,-524.5 352,-518.5 352,-518.5 352,-396.5 352,-396.5 352,-390.5 358,-384.5 364,-384.5"/>
<text text-anchor="middle" x="419.1069" y="-515.3" font-family="Times,serif" font-size="14.00" fill="#000000">CommentsController</text>
<polyline fill="none" stroke="#000000" points="352,-508.5 486.2139,-508.5 "/>
<text text-anchor="start" x="360" y="-493.3" font-family="Times,serif" font-size="14.00" fill="#000000">create</text>
<text text-anchor="start" x="360" y="-479.3" font-family="Times,serif" font-size="14.00" fill="#000000">destroy</text>
<text text-anchor="start" x="360" y="-465.3" font-family="Times,serif" font-size="14.00" fill="#000000">post_not_found</text>
<polyline fill="none" stroke="#000000" points="352,-458.5 486.2139,-458.5 "/>
<polyline fill="none" stroke="#000000" points="352,-434.5 486.2139,-434.5 "/>
<text text-anchor="start" x="360" y="-419.3" font-family="Times,serif" font-size="14.00" fill="#000000">_layout</text>
<text text-anchor="start" x="360" y="-405.3" font-family="Times,serif" font-size="14.00" fill="#000000">comment_params</text>
<text text-anchor="start" x="360" y="-391.3" font-family="Times,serif" font-size="14.00" fill="#000000">correct_user</text>
</g>
<!-- GamesController -->
<g id="node4" class="node">
<title>GamesController</title>
<path fill="none" stroke="#000000" d="M348,-176.5C348,-176.5 436.4209,-176.5 436.4209,-176.5 442.4209,-176.5 448.4209,-182.5 448.4209,-188.5 448.4209,-188.5 448.4209,-338.5 448.4209,-338.5 448.4209,-344.5 442.4209,-350.5 436.4209,-350.5 436.4209,-350.5 348,-350.5 348,-350.5 342,-350.5 336,-344.5 336,-338.5 336,-338.5 336,-188.5 336,-188.5 336,-182.5 342,-176.5 348,-176.5"/>
<text text-anchor="middle" x="392.2104" y="-335.3" font-family="Times,serif" font-size="14.00" fill="#000000">GamesController</text>
<polyline fill="none" stroke="#000000" points="336,-328.5 448.4209,-328.5 "/>
<text text-anchor="start" x="344" y="-313.3" font-family="Times,serif" font-size="14.00" fill="#000000">create</text>
<text text-anchor="start" x="344" y="-299.3" font-family="Times,serif" font-size="14.00" fill="#000000">destroy</text>
<text text-anchor="start" x="344" y="-285.3" font-family="Times,serif" font-size="14.00" fill="#000000">index</text>
<text text-anchor="start" x="344" y="-271.3" font-family="Times,serif" font-size="14.00" fill="#000000">new</text>
<text text-anchor="start" x="344" y="-257.3" font-family="Times,serif" font-size="14.00" fill="#000000">show</text>
<polyline fill="none" stroke="#000000" points="336,-250.5 448.4209,-250.5 "/>
<polyline fill="none" stroke="#000000" points="336,-226.5 448.4209,-226.5 "/>
<text text-anchor="start" x="344" y="-211.3" font-family="Times,serif" font-size="14.00" fill="#000000">_layout</text>
<text text-anchor="start" x="344" y="-197.3" font-family="Times,serif" font-size="14.00" fill="#000000">admin_user</text>
<text text-anchor="start" x="344" y="-183.3" font-family="Times,serif" font-size="14.00" fill="#000000">game_params</text>
</g>
<!-- PostsController -->
<g id="node5" class="node">
<title>PostsController</title>
<path fill="none" stroke="#000000" d="M44,-240.5C44,-240.5 123.8896,-240.5 123.8896,-240.5 129.8896,-240.5 135.8896,-246.5 135.8896,-252.5 135.8896,-252.5 135.8896,-388.5 135.8896,-388.5 135.8896,-394.5 129.8896,-400.5 123.8896,-400.5 123.8896,-400.5 44,-400.5 44,-400.5 38,-400.5 32,-394.5 32,-388.5 32,-388.5 32,-252.5 32,-252.5 32,-246.5 38,-240.5 44,-240.5"/>
<text text-anchor="middle" x="83.9448" y="-385.3" font-family="Times,serif" font-size="14.00" fill="#000000">PostsController</text>
<polyline fill="none" stroke="#000000" points="32,-378.5 135.8896,-378.5 "/>
<text text-anchor="start" x="40" y="-363.3" font-family="Times,serif" font-size="14.00" fill="#000000">create</text>
<text text-anchor="start" x="40" y="-349.3" font-family="Times,serif" font-size="14.00" fill="#000000">destroy</text>
<text text-anchor="start" x="40" y="-335.3" font-family="Times,serif" font-size="14.00" fill="#000000">post_not_found</text>
<text text-anchor="start" x="40" y="-321.3" font-family="Times,serif" font-size="14.00" fill="#000000">show</text>
<polyline fill="none" stroke="#000000" points="32,-314.5 135.8896,-314.5 "/>
<polyline fill="none" stroke="#000000" points="32,-290.5 135.8896,-290.5 "/>
<text text-anchor="start" x="40" y="-275.3" font-family="Times,serif" font-size="14.00" fill="#000000">_layout</text>
<text text-anchor="start" x="40" y="-261.3" font-family="Times,serif" font-size="14.00" fill="#000000">correct_user</text>
<text text-anchor="start" x="40" y="-247.3" font-family="Times,serif" font-size="14.00" fill="#000000">post_params</text>
</g>
<!-- RedditsController -->
<g id="node6" class="node">
<title>RedditsController</title>
<path fill="none" stroke="#000000" d="M524,-464.5C524,-464.5 616.3242,-464.5 616.3242,-464.5 622.3242,-464.5 628.3242,-470.5 628.3242,-476.5 628.3242,-476.5 628.3242,-542.5 628.3242,-542.5 628.3242,-548.5 622.3242,-554.5 616.3242,-554.5 616.3242,-554.5 524,-554.5 524,-554.5 518,-554.5 512,-548.5 512,-542.5 512,-542.5 512,-476.5 512,-476.5 512,-470.5 518,-464.5 524,-464.5"/>
<text text-anchor="middle" x="570.1621" y="-539.3" font-family="Times,serif" font-size="14.00" fill="#000000">RedditsController</text>
<polyline fill="none" stroke="#000000" points="512,-532.5 628.3242,-532.5 "/>
<text text-anchor="start" x="520" y="-517.3" font-family="Times,serif" font-size="14.00" fill="#000000">index</text>
<polyline fill="none" stroke="#000000" points="512,-510.5 628.3242,-510.5 "/>
<polyline fill="none" stroke="#000000" points="512,-486.5 628.3242,-486.5 "/>
<text text-anchor="start" x="520" y="-471.3" font-family="Times,serif" font-size="14.00" fill="#000000">_layout</text>
</g>
<!-- RelationshipsController -->
<g id="node7" class="node">
<title>RelationshipsController</title>
<path fill="none" stroke="#000000" d="M348,-32.5C348,-32.5 473.7656,-32.5 473.7656,-32.5 479.7656,-32.5 485.7656,-38.5 485.7656,-44.5 485.7656,-44.5 485.7656,-124.5 485.7656,-124.5 485.7656,-130.5 479.7656,-136.5 473.7656,-136.5 473.7656,-136.5 348,-136.5 348,-136.5 342,-136.5 336,-130.5 336,-124.5 336,-124.5 336,-44.5 336,-44.5 336,-38.5 342,-32.5 348,-32.5"/>
<text text-anchor="middle" x="410.8828" y="-121.3" font-family="Times,serif" font-size="14.00" fill="#000000">RelationshipsController</text>
<polyline fill="none" stroke="#000000" points="336,-114.5 485.7656,-114.5 "/>
<text text-anchor="start" x="344" y="-99.3" font-family="Times,serif" font-size="14.00" fill="#000000">create</text>
<text text-anchor="start" x="344" y="-85.3" font-family="Times,serif" font-size="14.00" fill="#000000">destroy</text>
<polyline fill="none" stroke="#000000" points="336,-78.5 485.7656,-78.5 "/>
<polyline fill="none" stroke="#000000" points="336,-54.5 485.7656,-54.5 "/>
<text text-anchor="start" x="344" y="-39.3" font-family="Times,serif" font-size="14.00" fill="#000000">_layout</text>
</g>
<!-- SessionsController -->
<g id="node8" class="node">
<title>SessionsController</title>
<path fill="none" stroke="#000000" d="M12,-96.5C12,-96.5 109.7793,-96.5 109.7793,-96.5 115.7793,-96.5 121.7793,-102.5 121.7793,-108.5 121.7793,-108.5 121.7793,-202.5 121.7793,-202.5 121.7793,-208.5 115.7793,-214.5 109.7793,-214.5 109.7793,-214.5 12,-214.5 12,-214.5 6,-214.5 0,-208.5 0,-202.5 0,-202.5 0,-108.5 0,-108.5 0,-102.5 6,-96.5 12,-96.5"/>
<text text-anchor="middle" x="60.8896" y="-199.3" font-family="Times,serif" font-size="14.00" fill="#000000">SessionsController</text>
<polyline fill="none" stroke="#000000" points="0,-192.5 121.7793,-192.5 "/>
<text text-anchor="start" x="8" y="-177.3" font-family="Times,serif" font-size="14.00" fill="#000000">create</text>
<text text-anchor="start" x="8" y="-163.3" font-family="Times,serif" font-size="14.00" fill="#000000">destroy</text>
<text text-anchor="start" x="8" y="-149.3" font-family="Times,serif" font-size="14.00" fill="#000000">new</text>
<polyline fill="none" stroke="#000000" points="0,-142.5 121.7793,-142.5 "/>
<polyline fill="none" stroke="#000000" points="0,-118.5 121.7793,-118.5 "/>
<text text-anchor="start" x="8" y="-103.3" font-family="Times,serif" font-size="14.00" fill="#000000">_layout</text>
</g>
<!-- StaticPagesController -->
<g id="node9" class="node">
<title>StaticPagesController</title>
<path fill="none" stroke="#000000" d="M492,-176.5C492,-176.5 606.0898,-176.5 606.0898,-176.5 612.0898,-176.5 618.0898,-182.5 618.0898,-188.5 618.0898,-188.5 618.0898,-282.5 618.0898,-282.5 618.0898,-288.5 612.0898,-294.5 606.0898,-294.5 606.0898,-294.5 492,-294.5 492,-294.5 486,-294.5 480,-288.5 480,-282.5 480,-282.5 480,-188.5 480,-188.5 480,-182.5 486,-176.5 492,-176.5"/>
<text text-anchor="middle" x="549.0449" y="-279.3" font-family="Times,serif" font-size="14.00" fill="#000000">StaticPagesController</text>
<polyline fill="none" stroke="#000000" points="480,-272.5 618.0898,-272.5 "/>
<text text-anchor="start" x="488" y="-257.3" font-family="Times,serif" font-size="14.00" fill="#000000">about</text>
<text text-anchor="start" x="488" y="-243.3" font-family="Times,serif" font-size="14.00" fill="#000000">help</text>
<text text-anchor="start" x="488" y="-229.3" font-family="Times,serif" font-size="14.00" fill="#000000">home</text>
<polyline fill="none" stroke="#000000" points="480,-222.5 618.0898,-222.5 "/>
<polyline fill="none" stroke="#000000" points="480,-198.5 618.0898,-198.5 "/>
<text text-anchor="start" x="488" y="-183.3" font-family="Times,serif" font-size="14.00" fill="#000000">_layout</text>
</g>
<!-- TopicsController -->
<g id="node10" class="node">
<title>TopicsController</title>
<path fill="none" stroke="#000000" d="M524,-.5C524,-.5 610.6709,-.5 610.6709,-.5 616.6709,-.5 622.6709,-6.5 622.6709,-12.5 622.6709,-12.5 622.6709,-120.5 622.6709,-120.5 622.6709,-126.5 616.6709,-132.5 610.6709,-132.5 610.6709,-132.5 524,-132.5 524,-132.5 518,-132.5 512,-126.5 512,-120.5 512,-120.5 512,-12.5 512,-12.5 512,-6.5 518,-.5 524,-.5"/>
<text text-anchor="middle" x="567.3354" y="-117.3" font-family="Times,serif" font-size="14.00" fill="#000000">TopicsController</text>
<polyline fill="none" stroke="#000000" points="512,-110.5 622.6709,-110.5 "/>
<text text-anchor="start" x="520" y="-95.3" font-family="Times,serif" font-size="14.00" fill="#000000">create</text>
<text text-anchor="start" x="520" y="-81.3" font-family="Times,serif" font-size="14.00" fill="#000000">destroy</text>
<text text-anchor="start" x="520" y="-67.3" font-family="Times,serif" font-size="14.00" fill="#000000">show</text>
<polyline fill="none" stroke="#000000" points="512,-60.5 622.6709,-60.5 "/>
<polyline fill="none" stroke="#000000" points="512,-36.5 622.6709,-36.5 "/>
<text text-anchor="start" x="520" y="-21.3" font-family="Times,serif" font-size="14.00" fill="#000000">_layout</text>
<text text-anchor="start" x="520" y="-7.3" font-family="Times,serif" font-size="14.00" fill="#000000">topic_params</text>
</g>
<!-- UsersController -->
<g id="node11" class="node">
<title>UsersController</title>
<path fill="none" stroke="#000000" d="M172,-128.5C172,-128.5 298.5176,-128.5 298.5176,-128.5 304.5176,-128.5 310.5176,-134.5 310.5176,-140.5 310.5176,-140.5 310.5176,-388.5 310.5176,-388.5 310.5176,-394.5 304.5176,-400.5 298.5176,-400.5 298.5176,-400.5 172,-400.5 172,-400.5 166,-400.5 160,-394.5 160,-388.5 160,-388.5 160,-140.5 160,-140.5 160,-134.5 166,-128.5 172,-128.5"/>
<text text-anchor="middle" x="235.2588" y="-385.3" font-family="Times,serif" font-size="14.00" fill="#000000">UsersController</text>
<polyline fill="none" stroke="#000000" points="160,-378.5 310.5176,-378.5 "/>
<text text-anchor="start" x="168" y="-363.3" font-family="Times,serif" font-size="14.00" fill="#000000">user_not_found</text>
<text text-anchor="start" x="168" y="-349.3" font-family="Times,serif" font-size="14.00" fill="#000000">destroy</text>
<text text-anchor="start" x="168" y="-335.3" font-family="Times,serif" font-size="14.00" fill="#000000">edit</text>
<text text-anchor="start" x="168" y="-321.3" font-family="Times,serif" font-size="14.00" fill="#000000">followers</text>
<text text-anchor="start" x="168" y="-307.3" font-family="Times,serif" font-size="14.00" fill="#000000">following</text>
<text text-anchor="start" x="168" y="-293.3" font-family="Times,serif" font-size="14.00" fill="#000000">index</text>
<text text-anchor="start" x="168" y="-279.3" font-family="Times,serif" font-size="14.00" fill="#000000">new</text>
<text text-anchor="start" x="168" y="-265.3" font-family="Times,serif" font-size="14.00" fill="#000000">show</text>
<text text-anchor="start" x="168" y="-251.3" font-family="Times,serif" font-size="14.00" fill="#000000">update</text>
<text text-anchor="start" x="168" y="-237.3" font-family="Times,serif" font-size="14.00" fill="#000000">create</text>
<polyline fill="none" stroke="#000000" points="160,-230.5 310.5176,-230.5 "/>
<polyline fill="none" stroke="#000000" points="160,-206.5 310.5176,-206.5 "/>
<text text-anchor="start" x="168" y="-191.3" font-family="Times,serif" font-size="14.00" fill="#000000">_layout</text>
<text text-anchor="start" x="168" y="-177.3" font-family="Times,serif" font-size="14.00" fill="#000000">admin_user</text>
<text text-anchor="start" x="168" y="-163.3" font-family="Times,serif" font-size="14.00" fill="#000000">correct_user</text>
<text text-anchor="start" x="168" y="-149.3" font-family="Times,serif" font-size="14.00" fill="#000000">user_params</text>
<text text-anchor="start" x="168" y="-135.3" font-family="Times,serif" font-size="14.00" fill="#000000">user_params_with_desc</text>
</g>
</g>
</svg>
