<?xml version="1.0" encoding="UTF-8" standalone="no"?>
<!DOCTYPE svg PUBLIC "-//W3C//DTD SVG 1.1//EN"
 "http://www.w3.org/Graphics/SVG/1.1/DTD/svg11.dtd">
<!-- Generated by graphviz version 2.40.1 (20161225.0304)
 -->
<!-- Title: models_diagram Pages: 1 -->
<svg width="865pt" height="482pt"
 viewBox="0.00 0.00 864.96 482.00" xmlns="http://www.w3.org/2000/svg" xmlns:xlink="http://www.w3.org/1999/xlink">
<g id="graph0" class="graph" transform="scale(1 1) rotate(0) translate(4 478)">
<title>models_diagram</title>
<polygon fill="transparent" stroke="transparent" points="-4,4 -4,-478 860.9551,-478 860.9551,4 -4,4"/>
<!-- _diagram_info -->
<g id="node1" class="node">
<title>_diagram_info</title>
<text text-anchor="start" x="8" y="-417.6" font-family="Times,serif" font-size="13.00" fill="#000000">Models diagram</text>
<text text-anchor="start" x="8" y="-404.6" font-family="Times,serif" font-size="13.00" fill="#000000">Date: Mar 26 2017 &#45; 22:48</text>
<text text-anchor="start" x="8" y="-391.6" font-family="Times,serif" font-size="13.00" fill="#000000">Migration version: 20170326114421</text>
<text text-anchor="start" x="8" y="-378.6" font-family="Times,serif" font-size="13.00" fill="#000000">Generated by RailRoady 1.5.2</text>
<text text-anchor="start" x="8" y="-365.6" font-family="Times,serif" font-size="13.00" fill="#000000">http://railroady.prestonlee.com</text>
</g>
<!-- ApplicationRecord -->
<g id="node2" class="node">
<title>ApplicationRecord</title>
<ellipse fill="none" stroke="#000000" cx="302.4497" cy="-395.5" rx="77.2916" ry="18"/>
<text text-anchor="middle" x="302.4497" y="-391.3" font-family="Times,serif" font-size="14.00" fill="#000000">ApplicationRecord</text>
</g>
<!-- Comment -->
<g id="node3" class="node">
<title>Comment</title>
<path fill="none" stroke="#000000" d="M360.9443,-.5C360.9443,-.5 469.9551,-.5 469.9551,-.5 475.9551,-.5 481.9551,-6.5 481.9551,-12.5 481.9551,-12.5 481.9551,-102.5 481.9551,-102.5 481.9551,-108.5 475.9551,-114.5 469.9551,-114.5 469.9551,-114.5 360.9443,-114.5 360.9443,-114.5 354.9443,-114.5 348.9443,-108.5 348.9443,-102.5 348.9443,-102.5 348.9443,-12.5 348.9443,-12.5 348.9443,-6.5 354.9443,-.5 360.9443,-.5"/>
<text text-anchor="middle" x="415.4497" y="-99.3" font-family="Times,serif" font-size="14.00" fill="#000000">Comment</text>
<polyline fill="none" stroke="#000000" points="348.9443,-92.5 481.9551,-92.5 "/>
<text text-anchor="start" x="356.9443" y="-77.3" font-family="Times,serif" font-size="14.00" fill="#000000">id :INTEGER</text>
<text text-anchor="start" x="356.9443" y="-63.3" font-family="Times,serif" font-size="14.00" fill="#000000">content :varchar</text>
<text text-anchor="start" x="356.9443" y="-49.3" font-family="Times,serif" font-size="14.00" fill="#000000">user_id :integer</text>
<text text-anchor="start" x="356.9443" y="-35.3" font-family="Times,serif" font-size="14.00" fill="#000000">post_id :integer</text>
<text text-anchor="start" x="356.9443" y="-21.3" font-family="Times,serif" font-size="14.00" fill="#000000">created_at :datetime</text>
<text text-anchor="start" x="356.9443" y="-7.3" font-family="Times,serif" font-size="14.00" fill="#000000">updated_at :datetime</text>
</g>
<!-- Game -->
<g id="node4" class="node">
<title>Game</title>
<path fill="none" stroke="#000000" d="M735.9443,-331.5C735.9443,-331.5 844.9551,-331.5 844.9551,-331.5 850.9551,-331.5 856.9551,-337.5 856.9551,-343.5 856.9551,-343.5 856.9551,-447.5 856.9551,-447.5 856.9551,-453.5 850.9551,-459.5 844.9551,-459.5 844.9551,-459.5 735.9443,-459.5 735.9443,-459.5 729.9443,-459.5 723.9443,-453.5 723.9443,-447.5 723.9443,-447.5 723.9443,-343.5 723.9443,-343.5 723.9443,-337.5 729.9443,-331.5 735.9443,-331.5"/>
<text text-anchor="middle" x="790.4497" y="-444.3" font-family="Times,serif" font-size="14.00" fill="#000000">Game</text>
<polyline fill="none" stroke="#000000" points="723.9443,-437.5 856.9551,-437.5 "/>
<text text-anchor="start" x="731.9443" y="-422.3" font-family="Times,serif" font-size="14.00" fill="#000000">description :varchar</text>
<text text-anchor="start" x="731.9443" y="-408.3" font-family="Times,serif" font-size="14.00" fill="#000000">name :varchar</text>
<text text-anchor="start" x="731.9443" y="-394.3" font-family="Times,serif" font-size="14.00" fill="#000000">publisher :varchar</text>
<text text-anchor="start" x="731.9443" y="-380.3" font-family="Times,serif" font-size="14.00" fill="#000000">id :INTEGER</text>
<text text-anchor="start" x="731.9443" y="-366.3" font-family="Times,serif" font-size="14.00" fill="#000000">picture :varchar</text>
<text text-anchor="start" x="731.9443" y="-352.3" font-family="Times,serif" font-size="14.00" fill="#000000">created_at :datetime</text>
<text text-anchor="start" x="731.9443" y="-338.3" font-family="Times,serif" font-size="14.00" fill="#000000">updated_at :datetime</text>
</g>
<!-- Topic -->
<g id="node7" class="node">
<title>Topic</title>
<path fill="none" stroke="#000000" d="M735.9443,-159.5C735.9443,-159.5 844.9551,-159.5 844.9551,-159.5 850.9551,-159.5 856.9551,-165.5 856.9551,-171.5 856.9551,-171.5 856.9551,-247.5 856.9551,-247.5 856.9551,-253.5 850.9551,-259.5 844.9551,-259.5 844.9551,-259.5 735.9443,-259.5 735.9443,-259.5 729.9443,-259.5 723.9443,-253.5 723.9443,-247.5 723.9443,-247.5 723.9443,-171.5 723.9443,-171.5 723.9443,-165.5 729.9443,-159.5 735.9443,-159.5"/>
<text text-anchor="middle" x="790.4497" y="-244.3" font-family="Times,serif" font-size="14.00" fill="#000000">Topic</text>
<polyline fill="none" stroke="#000000" points="723.9443,-237.5 856.9551,-237.5 "/>
<text text-anchor="start" x="731.9443" y="-222.3" font-family="Times,serif" font-size="14.00" fill="#000000">id :INTEGER</text>
<text text-anchor="start" x="731.9443" y="-208.3" font-family="Times,serif" font-size="14.00" fill="#000000">name :varchar</text>
<text text-anchor="start" x="731.9443" y="-194.3" font-family="Times,serif" font-size="14.00" fill="#000000">game_id :integer</text>
<text text-anchor="start" x="731.9443" y="-180.3" font-family="Times,serif" font-size="14.00" fill="#000000">created_at :datetime</text>
<text text-anchor="start" x="731.9443" y="-166.3" font-family="Times,serif" font-size="14.00" fill="#000000">updated_at :datetime</text>
</g>
<!-- Game&#45;&gt;Topic -->
<g id="edge1" class="edge">
<title>Game&#45;&gt;Topic</title>
<path fill="none" stroke="#bc1d83" d="M790.4497,-323.3939C790.4497,-305.7161 790.4497,-286.9762 790.4497,-269.9119"/>
<ellipse fill="none" stroke="#bc1d83" cx="790.4498" cy="-327.4894" rx="4" ry="4"/>
<polygon fill="#bc1d83" stroke="#bc1d83" points="790.4498,-269.5281 794.9497,-259.528 790.4498,-264.5281 790.4497,-259.5281 790.4497,-259.5281 790.4497,-259.5281 790.4498,-264.5281 785.9497,-259.5281 790.4498,-269.5281 790.4498,-269.5281"/>
</g>
<!-- Post -->
<g id="node5" class="node">
<title>Post</title>
<path fill="none" stroke="#000000" d="M425.9443,-152.5C425.9443,-152.5 534.9551,-152.5 534.9551,-152.5 540.9551,-152.5 546.9551,-158.5 546.9551,-164.5 546.9551,-164.5 546.9551,-254.5 546.9551,-254.5 546.9551,-260.5 540.9551,-266.5 534.9551,-266.5 534.9551,-266.5 425.9443,-266.5 425.9443,-266.5 419.9443,-266.5 413.9443,-260.5 413.9443,-254.5 413.9443,-254.5 413.9443,-164.5 413.9443,-164.5 413.9443,-158.5 419.9443,-152.5 425.9443,-152.5"/>
<text text-anchor="middle" x="480.4497" y="-251.3" font-family="Times,serif" font-size="14.00" fill="#000000">Post</text>
<polyline fill="none" stroke="#000000" points="413.9443,-244.5 546.9551,-244.5 "/>
<text text-anchor="start" x="421.9443" y="-229.3" font-family="Times,serif" font-size="14.00" fill="#000000">id :INTEGER</text>
<text text-anchor="start" x="421.9443" y="-215.3" font-family="Times,serif" font-size="14.00" fill="#000000">content :text</text>
<text text-anchor="start" x="421.9443" y="-201.3" font-family="Times,serif" font-size="14.00" fill="#000000">user_id :integer</text>
<text text-anchor="start" x="421.9443" y="-187.3" font-family="Times,serif" font-size="14.00" fill="#000000">created_at :datetime</text>
<text text-anchor="start" x="421.9443" y="-173.3" font-family="Times,serif" font-size="14.00" fill="#000000">updated_at :datetime</text>
<text text-anchor="start" x="421.9443" y="-159.3" font-family="Times,serif" font-size="14.00" fill="#000000">picture :varchar</text>
</g>
<!-- Post&#45;&gt;Comment -->
<g id="edge2" class="edge">
<title>Post&#45;&gt;Comment</title>
<path fill="none" stroke="#68c1e1" d="M452.8014,-144.8455C449.8458,-137.934 446.8355,-130.8944 443.8711,-123.9624"/>
<ellipse fill="none" stroke="#68c1e1" cx="454.4884" cy="-148.7905" rx="4" ry="4"/>
<polygon fill="#68c1e1" stroke="#68c1e1" points="443.7987,-123.793 444.0044,-112.829 441.8328,-119.1957 439.8668,-114.5984 439.8668,-114.5984 439.8668,-114.5984 441.8328,-119.1957 435.7292,-116.3678 443.7987,-123.793 443.7987,-123.793"/>
</g>
<!-- Relationship -->
<g id="node6" class="node">
<title>Relationship</title>
<path fill="none" stroke="#000000" d="M584.9443,-159.5C584.9443,-159.5 693.9551,-159.5 693.9551,-159.5 699.9551,-159.5 705.9551,-165.5 705.9551,-171.5 705.9551,-171.5 705.9551,-247.5 705.9551,-247.5 705.9551,-253.5 699.9551,-259.5 693.9551,-259.5 693.9551,-259.5 584.9443,-259.5 584.9443,-259.5 578.9443,-259.5 572.9443,-253.5 572.9443,-247.5 572.9443,-247.5 572.9443,-171.5 572.9443,-171.5 572.9443,-165.5 578.9443,-159.5 584.9443,-159.5"/>
<text text-anchor="middle" x="639.4497" y="-244.3" font-family="Times,serif" font-size="14.00" fill="#000000">Relationship</text>
<polyline fill="none" stroke="#000000" points="572.9443,-237.5 705.9551,-237.5 "/>
<text text-anchor="start" x="580.9443" y="-222.3" font-family="Times,serif" font-size="14.00" fill="#000000">id :INTEGER</text>
<text text-anchor="start" x="580.9443" y="-208.3" font-family="Times,serif" font-size="14.00" fill="#000000">follower_id :integer</text>
<text text-anchor="start" x="580.9443" y="-194.3" font-family="Times,serif" font-size="14.00" fill="#000000">followed_id :integer</text>
<text text-anchor="start" x="580.9443" y="-180.3" font-family="Times,serif" font-size="14.00" fill="#000000">created_at :datetime</text>
<text text-anchor="start" x="580.9443" y="-166.3" font-family="Times,serif" font-size="14.00" fill="#000000">updated_at :datetime</text>
</g>
<!-- User -->
<g id="node8" class="node">
<title>User</title>
<path fill="none" stroke="#000000" d="M410.1787,-317.5C410.1787,-317.5 548.7207,-317.5 548.7207,-317.5 554.7207,-317.5 560.7207,-323.5 560.7207,-329.5 560.7207,-329.5 560.7207,-461.5 560.7207,-461.5 560.7207,-467.5 554.7207,-473.5 548.7207,-473.5 548.7207,-473.5 410.1787,-473.5 410.1787,-473.5 404.1787,-473.5 398.1787,-467.5 398.1787,-461.5 398.1787,-461.5 398.1787,-329.5 398.1787,-329.5 398.1787,-323.5 404.1787,-317.5 410.1787,-317.5"/>
<text text-anchor="middle" x="479.4497" y="-458.3" font-family="Times,serif" font-size="14.00" fill="#000000">User</text>
<polyline fill="none" stroke="#000000" points="398.1787,-451.5 560.7207,-451.5 "/>
<text text-anchor="start" x="406.1787" y="-436.3" font-family="Times,serif" font-size="14.00" fill="#000000">admin :boolean</text>
<text text-anchor="start" x="406.1787" y="-422.3" font-family="Times,serif" font-size="14.00" fill="#000000">name :varchar</text>
<text text-anchor="start" x="406.1787" y="-408.3" font-family="Times,serif" font-size="14.00" fill="#000000">email :varchar</text>
<text text-anchor="start" x="406.1787" y="-394.3" font-family="Times,serif" font-size="14.00" fill="#000000">created_at :datetime</text>
<text text-anchor="start" x="406.1787" y="-380.3" font-family="Times,serif" font-size="14.00" fill="#000000">updated_at :datetime</text>
<text text-anchor="start" x="406.1787" y="-366.3" font-family="Times,serif" font-size="14.00" fill="#000000">password_digest :varchar</text>
<text text-anchor="start" x="406.1787" y="-352.3" font-family="Times,serif" font-size="14.00" fill="#000000">remember_digest :varchar</text>
<text text-anchor="start" x="406.1787" y="-338.3" font-family="Times,serif" font-size="14.00" fill="#000000">description :varchar</text>
<text text-anchor="start" x="406.1787" y="-324.3" font-family="Times,serif" font-size="14.00" fill="#000000">id :INTEGER</text>
</g>
<!-- User&#45;&gt;Comment -->
<g id="edge4" class="edge">
<title>User&#45;&gt;Comment</title>
<path fill="none" stroke="#23a8b7" d="M421.3937,-309.99C414.4191,-296.1333 408.3838,-281.545 404.4497,-267 391.8869,-220.5533 395.2193,-166.2535 401.3872,-124.5745"/>
<ellipse fill="none" stroke="#23a8b7" cx="423.2767" cy="-313.6156" rx="4" ry="4"/>
<polygon fill="#23a8b7" stroke="#23a8b7" points="401.4125,-124.4128 407.409,-115.2317 402.188,-119.4733 402.9634,-114.5338 402.9634,-114.5338 402.9634,-114.5338 402.188,-119.4733 398.5178,-113.8359 401.4125,-124.4128 401.4125,-124.4128"/>
</g>
<!-- User&#45;&gt;Post -->
<g id="edge3" class="edge">
<title>User&#45;&gt;Post</title>
<path fill="none" stroke="#ab814f" d="M479.9125,-309.4178C479.9715,-298.4481 480.0312,-287.3493 480.0882,-276.7364"/>
<ellipse fill="none" stroke="#ab814f" cx="479.891" cy="-313.4278" rx="4" ry="4"/>
<polygon fill="#ab814f" stroke="#ab814f" points="480.0882,-276.73 484.642,-266.7544 480.1151,-271.7301 480.142,-266.7302 480.142,-266.7302 480.142,-266.7302 480.1151,-271.7301 475.6421,-266.7059 480.0882,-276.73 480.0882,-276.73"/>
</g>
<!-- User&#45;&gt;Relationship -->
<g id="edge5" class="edge">
<title>User&#45;&gt;Relationship</title>
<path fill="none" stroke="#09c2b6" d="M492.9666,-309.6506C496.923,-300.6553 501.9937,-292.1888 508.4839,-285 523.7423,-268.099 536.2786,-277.5637 556.4497,-267 558.9974,-265.6657 561.5595,-264.2663 564.1236,-262.8156"/>
<ellipse fill="none" stroke="#09c2b6" cx="491.3851" cy="-313.601" rx="4" ry="4"/>
<polygon fill="#09c2b6" stroke="#09c2b6" points="564.2069,-262.7668 575.1091,-261.5867 568.5193,-260.2362 572.8316,-257.7056 572.8316,-257.7056 572.8316,-257.7056 568.5193,-260.2362 570.554,-253.8245 564.2069,-262.7668 564.2069,-262.7668"/>
<text text-anchor="middle" x="565.4326" y="-287.8" font-family="Times,serif" font-size="14.00" fill="#000000">active_relationships</text>
</g>
<!-- User&#45;&gt;Relationship -->
<g id="edge7" class="edge">
<title>User&#45;&gt;Relationship</title>
<path fill="none" stroke="#6ce48c" d="M567.7422,-350.2496C587.7037,-336.2766 606.9588,-319.1533 620.4497,-299 626.3424,-290.1973 630.4543,-279.9074 633.3134,-269.5024"/>
<ellipse fill="none" stroke="#6ce48c" cx="564.2603" cy="-352.6177" rx="4" ry="4"/>
<polygon fill="#6ce48c" stroke="#6ce48c" points="633.3701,-269.2638 640.0654,-260.579 634.529,-264.3999 635.6879,-259.536 635.6879,-259.536 635.6879,-259.536 634.529,-264.3999 631.3104,-258.4931 633.3701,-269.2638 633.3701,-269.2638"/>
<text text-anchor="middle" x="688.3291" y="-287.8" font-family="Times,serif" font-size="14.00" fill="#000000">passive_relationships</text>
</g>
<!-- User&#45;&gt;User -->
<g id="edge6" class="edge">
<title>User&#45;&gt;User</title>
<path fill="none" stroke="#2aa90c" d="M570.8699,-401.8502C575.7964,-400.2969 578.7207,-398.1801 578.7207,-395.5 578.7207,-392.8199 575.7964,-390.7031 570.8699,-389.1498"/>
<polygon fill="#2aa90c" stroke="#2aa90c" points="570.6423,-401.8975 559.9357,-399.5267 565.7469,-402.915 560.8515,-403.9326 560.8515,-403.9326 560.8515,-403.9326 565.7469,-402.915 561.7673,-408.3384 570.6423,-401.8975 570.6423,-401.8975"/>
<polygon fill="#2aa90c" stroke="#2aa90c" points="570.6423,-389.1025 561.7673,-382.6616 565.7469,-388.085 560.8515,-387.0674 560.8515,-387.0674 560.8515,-387.0674 565.7469,-388.085 559.9357,-391.4733 570.6423,-389.1025 570.6423,-389.1025"/>
<text text-anchor="middle" x="605.9414" y="-391.3" font-family="Times,serif" font-size="14.00" fill="#000000">following</text>
</g>
<!-- User&#45;&gt;User -->
<g id="edge8" class="edge">
<title>User&#45;&gt;User</title>
<path fill="none" stroke="#985333" d="M571.0615,-414.625C604.5617,-414.6127 633.1621,-408.2377 633.1621,-395.5 633.1621,-382.7623 604.5617,-376.3873 571.0615,-376.375"/>
<polygon fill="#985333" stroke="#985333" points="571.0188,-414.6243 561.1022,-409.9434 566.0196,-414.5335 561.0204,-414.4426 561.0204,-414.4426 561.0204,-414.4426 566.0196,-414.5335 560.9387,-418.9419 571.0188,-414.6243 571.0188,-414.6243"/>
<polygon fill="#985333" stroke="#985333" points="571.0188,-376.3757 560.9387,-372.0581 566.0196,-376.4665 561.0204,-376.5574 561.0204,-376.5574 561.0204,-376.5574 566.0196,-376.4665 561.1022,-381.0566 571.0188,-376.3757 571.0188,-376.3757"/>
<text text-anchor="middle" x="659.6001" y="-391.3" font-family="Times,serif" font-size="14.00" fill="#000000">followers</text>
</g>
</g>
</svg>
